<svg xmlns="http://www.w3.org/2000/svg" width="201.5" height="207"><path fill="#1F3364" d="M38.582 96.766C18.95 126.268 7.504 161.683 7.504 199.779h66.435c.744-23.591 8.224-45.5 20.592-63.875L38.582 96.766zm94.428 66.052l-32.027-22.404c-11.472 17.096-18.414 37.455-19.155 59.365h41.559c-.01-.5-.038-1-.038-1.504a69.608 69.608 0 0 1 9.661-35.457zM158.299 137.723a69.59 69.59 0 0 1 34.998-9.396c.139 0 .268.01.404.01V89.891c-20.607.33-39.894 6.157-56.467 16.084l21.065 31.748zM94.791 42.007l38.082 57.395c17.828-10.755 38.611-17.069 60.828-17.401V13.578c-36.342 0-70.248 10.423-98.91 28.429z"/><path fill="#979797" d="M194.184 200.093L2.816 65.953C13.353 44.449 46.641 12.421 65.797 5.907l128.387 194.186z"/><g fill="#FFF"><path d="M21.419 148.99l9.119-21.752 9.884 4.143-3.733 8.908 9.366 3.926 3.323-7.934 9.397 3.939-3.324 7.932 20.748 8.697-5.385 12.844-49.395-20.703zM102.897 83.437c3.788 3.822 6.378 6.621 7.772 8.391 1.396 1.766 2.271 3.78 2.626 6.034.356 2.256.076 4.536-.839 6.838-.913 2.302-2.446 4.519-4.592 6.647-2.035 2.017-4.196 3.496-6.477 4.439-2.28.938-4.575 1.231-6.883.878-2.305-.354-4.329-1.223-6.069-2.602-1.739-1.381-4.552-4.031-8.431-7.948l-6.449-6.508c-3.789-3.826-6.38-6.621-7.774-8.388a12.784 12.784 0 0 1-2.628-6.036c-.357-2.254-.074-4.536.838-6.842.917-2.302 2.448-4.515 4.596-6.644 2.036-2.019 4.195-3.498 6.476-4.438 2.281-.939 4.575-1.233 6.881-.878 2.307.353 4.331 1.221 6.07 2.601 1.741 1.379 4.55 4.028 8.431 7.946l6.452 6.51zm-22.282-2.701c-1.754-1.77-2.973-2.805-3.658-3.108-.684-.298-1.332-.142-1.942.461-.521.516-.716 1.106-.596 1.776.123.672 1.154 1.985 3.093 3.945l17.602 17.768c2.189 2.208 3.629 3.482 4.322 3.822.691.338 1.366.184 2.024-.472.676-.666.811-1.392.41-2.173-.403-.783-1.713-2.294-3.933-4.533L80.615 80.736zM156.838 23.318l16.367 51.012-11.623 3.73-14.345-20.976 7.442 23.188-11.094 3.559-16.367-51.01 11.092-3.559 14.805 20.582-7.367-22.969 11.09-3.557z"/></g></svg>