<svg xmlns="http://www.w3.org/2000/svg" width="311.499" height="56.393"><g fill="#FFF"><path d="M17.991 55.228c-.228.21-.782.313-1.667.313H5.303c-1.188 0-1.667-.519-1.421-1.555l8.902-38.037a23.088 23.088 0 0 1 2.061-5.475 17.32 17.32 0 0 1 3.629-4.733c1.484-1.372 3.28-2.476 5.394-3.303 2.105-.827 4.532-1.243 7.271-1.243h23.606c.621 0 1.001.094 1.14.277.134.179.103.706-.103 1.586l-2.052 8.773c-.161.675-.366 1.126-.63 1.358s-.679.349-1.247.349H32.681c-1.037 0-1.899.143-2.583.429-.692.282-1.242.63-1.645 1.046-.407.416-.729.88-.952 1.399a9.35 9.35 0 0 0-.518 1.551l-1.122 4.813h20.415c.621 0 .997.107 1.13.309.134.21.094.755-.112 1.631l-1.89 8.076c-.277 1.189-.907 1.788-1.891 1.788H23.099l-4.545 19.405c-.147.621-.335 1.036-.563 1.243M102.391 28.291c-1.019 4.349-2.405 8.254-4.147 11.723-1.743 3.468-3.893 6.422-6.454 8.849-2.561 2.431-5.578 4.299-9.032 5.591-3.463 1.291-7.392 1.939-11.79 1.939-4.192 0-7.687-.635-10.467-1.899-2.78-1.27-4.872-3.106-6.275-5.511-1.403-2.408-2.181-5.35-2.324-8.817-.147-3.464.286-7.37 1.305-11.723.992-4.241 2.431-8.098 4.304-11.562 1.873-3.468 4.116-6.436 6.735-8.894s5.613-4.349 8.974-5.667S80.282.344 84.317.344c4.197 0 7.678.657 10.445 1.976 2.771 1.318 4.894 3.195 6.373 5.626 1.47 2.436 2.297 5.376 2.476 8.813.174 3.447-.228 7.286-1.22 11.532m-15.473.076c.425-2.016.707-3.946.849-5.783.148-1.837.041-3.428-.317-4.778-.358-1.345-1.042-2.413-2.042-3.218-1.001-.8-2.409-1.207-4.219-1.207a8.193 8.193 0 0 0-4.232 1.167c-1.318.778-2.499 1.828-3.531 3.146-1.037 1.318-1.935 2.86-2.708 4.616a31.064 31.064 0 0 0-1.836 5.515c-.554 2.382-.903 4.527-1.042 6.44-.134 1.917 0 3.535.42 4.854.411 1.323 1.131 2.342 2.15 3.066 1.023.729 2.413 1.09 4.174 1.09 1.707 0 3.222-.402 4.549-1.206 1.327-.801 2.485-1.887 3.477-3.259.997-1.372 1.846-2.963 2.552-4.772a41.14 41.14 0 0 0 1.756-5.671M202.806 25.885c1.301.617 2.352 1.408 3.133 2.364a9.825 9.825 0 0 1 1.743 3.187c.371 1.162.55 2.382.536 3.647a16.726 16.726 0 0 1-.451 3.763 19.455 19.455 0 0 1-3.025 6.798 22.095 22.095 0 0 1-5.238 5.278 24.275 24.275 0 0 1-6.811 3.414 25.153 25.153 0 0 1-7.776 1.202h-20.183c-2.123 0-3.401-.397-3.835-1.202-.429-.8-.434-2.109-.013-3.919l10.323-44.098c.397-1.707 1.01-2.985 1.832-3.839.818-.858 2.293-1.287 4.411-1.287h20.188c2.324 0 4.442.264 6.337.777 1.899.519 3.464 1.35 4.697 2.485 1.233 1.144 2.087 2.592 2.557 4.349.465 1.761.411 3.884-.175 6.364-.469 2.021-1.47 3.973-3.003 5.864-1.524 1.891-3.24 3.352-5.135 4.389l-.112.464zm-20.415-4.656h8.103c1.023 0 2.043-.264 3.039-.778.988-.519 1.663-1.528 2.016-3.03.277-1.189.139-2.096-.406-2.717-.55-.622-1.417-.93-2.597-.93h-8.406l-1.749 7.455zm10.472 16.611c.353-1.501.188-2.73-.487-3.687-.675-.957-1.863-1.439-3.562-1.439h-9.108l-2.382 10.172h9.107c1.033 0 1.918-.156 2.664-.465a6.28 6.28 0 0 0 1.908-1.242 6.355 6.355 0 0 0 1.233-1.631c.282-.572.497-1.14.627-1.708M249.148 55.54h-23.99c-3.11 0-5.524-.442-7.258-1.318-1.734-.885-2.995-2.029-3.772-3.455-.782-1.426-1.171-3.017-1.175-4.777-.005-1.761.2-3.495.599-5.202l5.814-24.839a23.1 23.1 0 0 1 2.06-5.475 17.434 17.434 0 0 1 3.629-4.732c1.484-1.372 3.285-2.476 5.395-3.303 2.105-.827 4.532-1.243 7.276-1.243h22.899c.626 0 1.001.094 1.14.277.144.179.103.71-.099 1.586l-2.046 8.777c-.161.67-.376 1.122-.64 1.354-.259.232-.675.348-1.242.348h-18.476c-1.037 0-1.904.143-2.583.429-.693.282-1.238.63-1.645 1.05a4.506 4.506 0 0 0-.952 1.395 9.643 9.643 0 0 0-.519 1.551l-.765 3.262h20.813c.621 0 .996.107 1.131.309.129.21.094.755-.116 1.636l-1.887 8.071c-.281 1.188-.911 1.783-1.895 1.783h-20.809l-1.358 5.823c-.232.987-.3 1.766-.196 2.333.098.567.317.992.67 1.278.349.281.8.465 1.346.545.554.076 1.166.111 1.837.111h19.722c.621 0 .997.095 1.14.277.139.179.107.711-.098 1.587l-2.057 8.777c-.275 1.19-.915 1.785-1.893 1.785M307.258 13.54h-13.273l-9.453 40.37c-.143.621-.335 1.05-.567 1.282-.245.232-.8.349-1.68.349H271.26c-1.189 0-1.654-.545-1.395-1.631l9.447-40.37h-12.97c-1.086 0-1.492-.594-1.211-1.783l2.029-8.697c.21-.88.447-1.408.729-1.591.272-.183.724-.272 1.341-.272h40.919c.617 0 1.024.089 1.212.272.192.184.183.711-.022 1.591l-2.033 8.697c-.283 1.189-.962 1.783-2.048 1.783M124.255 26.12l-6.637 27.789c-.143.621-.335 1.05-.572 1.282-.241.232-.795.349-1.676.349h-11.02c-1.193 0-1.658-.54-1.399-1.631L114.07 7.336c.581-2.431 1.368-4.067 2.374-4.894.992-.827 2.583-1.243 4.755-1.243h4.036c.778 0 1.444.041 1.993.116.55.081 1.042.232 1.475.469.438.232.835.581 1.188 1.046.358.469.724 1.09 1.108 1.864l7.138 16.612 3.794 9.47h.545l6.668-27.946c.147-.621.339-1.046.577-1.283.237-.232.795-.349 1.671-.349h11.025c1.188 0 1.658.545 1.395 1.631l-11.115 46.577c-.42 1.757-1.13 3.223-2.132 4.385-1.001 1.166-2.668 1.747-4.996 1.747h-4.036c-.729 0-1.376-.035-1.953-.116a4.367 4.367 0 0 1-1.52-.465c-.438-.232-.849-.585-1.225-1.05-.38-.465-.737-1.086-1.073-1.863l-7.052-16.299-3.91-9.625h-.545z"/></g></svg>